<?xml version="1.0" encoding="iso-8859-1"?>
<!-- Generator: Adobe Illustrator 16.0.0, SVG Export Plug-In . SVG Version: 6.00 Build 0)  -->
<!DOCTYPE svg PUBLIC "-//W3C//DTD SVG 1.1//EN" "http://www.w3.org/Graphics/SVG/1.1/DTD/svg11.dtd">
<svg version="1.1" id="Capa_1" xmlns="http://www.w3.org/2000/svg" xmlns:xlink="http://www.w3.org/1999/xlink" x="0px" y="0px"
	 width="46.334px" height="46.334px" viewBox="0 0 46.334 46.334" style="enable-background:new 0 0 46.334 46.334;"
	 xml:space="preserve">
<g>
	<g>
		<path d="M42.988,6.007c-0.742-0.642-1.69-1.003-2.672-1.003H5.838c-0.996,0-1.959,0.373-2.705,1.033l-2.37,2.101
			C0.589,8.293,0.528,8.54,0.611,8.757C0.694,8.976,0.902,9.12,1.135,9.12h43.936c0.234,0,0.443-0.146,0.525-0.365
			s0.019-0.466-0.158-0.62L42.988,6.007z"/>
		<path d="M17.849,24.011h-5.675c-0.954,0-1.689,0.813-1.689,1.769v15.539h9.079V25.78C19.564,24.825,18.803,24.011,17.849,24.011z"
			/>
		<path d="M35.245,17.752l-1.873,1.364c-1.866,1.374-4.377,1.281-6.243-0.092l-1.827-1.317c-1.146-0.843-2.687-0.794-3.834,0.045
			l-1.873,1.352c-1.867,1.374-4.377,1.268-6.244-0.106l-1.827-1.343c-1.146-0.843-2.686-0.847-3.833-0.007L4.336,20.16v17.116
			c0,2.238,1.844,4.054,4.066,4.054V24.714c0-1.487,1.219-2.737,2.706-2.737h7.804c1.487,0,2.684,1.25,2.684,2.737v16.604H37.83
			c2.239,0,4.052-1.808,4.052-4.045V19.712l-2.805-2.005C37.935,16.864,36.394,16.914,35.245,17.752z M37.864,34.333
			c0,1.09-0.915,1.974-2.004,1.974h-8.258c-1.089,0-1.985-0.884-1.985-1.974v-6.585h12.247V34.333z M37.864,25.241H25.616v-1.282
			c0-1.09,0.896-1.98,1.984-1.98h8.259c1.09,0,2.004,0.891,2.004,1.98L37.864,25.241L37.864,25.241z"/>
		<path d="M1.409,16.424c0.176,0.634,0.654,1.141,1.277,1.354c0.624,0.212,1.312,0.104,1.838-0.291l1.972-1.477
			c1.865-1.36,4.368-1.355,6.229,0.012l1.826,1.344c1.149,0.845,2.694,0.844,3.844,0l1.846-1.358
			c1.634-1.202,3.772-1.346,5.533-0.436c0.015,0.008,0.029,0.019,0.044,0.027c0.212,0.112,0.421,0.231,0.62,0.374l2.238,1.607
			c1.101,0.615,2.458,0.547,3.496-0.215l1.847-1.359c1.634-1.203,3.771-1.347,5.532-0.438c0.015,0.009,0.028,0.015,0.045,0.023
			c0.211,0.112,0.42,0.224,0.619,0.367l2.063,1.473c0.553,0.396,1.269,0.48,1.898,0.229c0.63-0.252,1.089-0.808,1.217-1.475
			l0.919-4.78c0.062-0.319-0.023-0.649-0.229-0.899c-0.207-0.25-0.516-0.396-0.84-0.396H1.089c-0.34,0-0.661,0.159-0.867,0.43
			s-0.273,0.623-0.183,0.95L1.409,16.424z"/>
	</g>
</g>
<g>
</g>
<g>
</g>
<g>
</g>
<g>
</g>
<g>
</g>
<g>
</g>
<g>
</g>
<g>
</g>
<g>
</g>
<g>
</g>
<g>
</g>
<g>
</g>
<g>
</g>
<g>
</g>
<g>
</g>
</svg>
